<svg width="372" height="120" viewBox="0 0 372 120" fill="none" xmlns="http://www.w3.org/2000/svg">
<g filter="url(#filter0_d_34_48)">
<circle cx="60" cy="48" r="30" fill="white"/>
</g>
<path d="M61.7463 59.2462V49.0012H65.2025L65.7163 44.9899H61.7463V42.4349C61.7463 41.2774 62.0688 40.4849 63.73 40.4849H65.835V36.9087C64.8113 36.7987 63.7813 36.7462 62.7513 36.7499C59.6963 36.7499 57.5988 38.6149 57.5988 42.0387V44.9824H54.165V48.9937H57.6063V59.2462H61.7463Z" fill="#64646A"/>
<g filter="url(#filter1_d_34_48)">
<circle cx="144" cy="48" r="30" fill="white"/>
</g>
<path d="M155.184 43.3812C155.17 42.4349 154.995 41.4962 154.66 40.6112C154.074 39.0999 152.88 37.9049 151.369 37.3199C150.495 36.9912 149.571 36.8149 148.636 36.7949C147.434 36.7412 147.053 36.7262 144 36.7262C140.948 36.7262 140.556 36.7262 139.363 36.7949C138.429 36.8149 137.505 36.9912 136.631 37.3199C135.12 37.9049 133.925 39.0999 133.34 40.6112C133.011 41.4849 132.834 42.4087 132.816 43.3424C132.763 44.5462 132.746 44.9274 132.746 47.9799C132.746 51.0324 132.746 51.4224 132.816 52.6174C132.835 53.5524 133.011 54.4749 133.34 55.3512C133.926 56.8612 135.12 58.0562 136.633 58.6412C137.503 58.9812 138.426 59.1737 139.364 59.2037C140.568 59.2574 140.949 59.2737 144.001 59.2737C147.054 59.2737 147.445 59.2737 148.639 59.2037C149.573 59.1849 150.496 59.0087 151.371 58.6799C152.883 58.0937 154.076 56.8987 154.663 55.3887C154.991 54.5137 155.168 53.5912 155.186 52.6549C155.24 51.4524 155.256 51.0712 155.256 48.0174C155.254 44.9649 155.254 44.5774 155.184 43.3812ZM143.993 53.7524C140.8 53.7524 138.214 51.1662 138.214 47.9737C138.214 44.7812 140.8 42.1949 143.993 42.1949C147.183 42.1949 149.771 44.7812 149.771 47.9737C149.771 51.1662 147.183 53.7524 143.993 53.7524ZM150.001 43.3287C149.255 43.3287 148.654 42.7262 148.654 41.9812C148.654 41.2362 149.255 40.6337 150.001 40.6337C150.745 40.6337 151.348 41.2362 151.348 41.9812C151.348 42.7262 150.745 43.3287 150.001 43.3287Z" fill="#64646A"/>
<path d="M143.993 51.7275C146.066 51.7275 147.746 50.0469 147.746 47.9737C147.746 45.9006 146.066 44.22 143.993 44.22C141.919 44.22 140.239 45.9006 140.239 47.9737C140.239 50.0469 141.919 51.7275 143.993 51.7275Z" fill="#64646A"/>
<g filter="url(#filter2_d_34_48)">
<circle cx="228" cy="48" r="30" fill="white"/>
</g>
<path d="M237.541 42.9963C237.557 43.2151 237.557 43.4326 237.557 43.6501C237.557 50.3063 232.491 57.9763 223.232 57.9763C220.38 57.9763 217.73 57.1501 215.5 55.7151C215.905 55.7613 216.295 55.7776 216.716 55.7776C219.07 55.7776 221.236 54.9826 222.967 53.6263C220.754 53.5801 218.899 52.1301 218.259 50.1351C218.57 50.1813 218.882 50.2126 219.21 50.2126C219.661 50.2126 220.115 50.1501 220.536 50.0413C218.227 49.5738 216.499 47.5476 216.499 45.1001V45.0376C217.17 45.4113 217.949 45.6451 218.774 45.6763C217.417 44.7738 216.529 43.2301 216.529 41.4838C216.529 40.5488 216.778 39.6913 217.214 38.9438C219.693 41.9976 223.419 43.9938 227.596 44.2126C227.519 43.8376 227.471 43.4488 227.471 43.0588C227.471 40.2838 229.716 38.0238 232.506 38.0238C233.956 38.0238 235.265 38.6313 236.185 39.6138C237.323 39.3951 238.413 38.9738 239.38 38.3976C239.006 39.5663 238.21 40.5488 237.166 41.1726C238.18 41.0626 239.163 40.7826 240.065 40.3926C239.38 41.3901 238.524 42.2788 237.541 42.9963Z" fill="#64646A"/>
<g filter="url(#filter3_d_34_48)">
<circle cx="312" cy="48" r="30" fill="white"/>
</g>
<path d="M303.229 41.9962C304.739 41.9962 305.964 40.7717 305.964 39.2612C305.964 37.7507 304.739 36.5262 303.229 36.5262C301.718 36.5262 300.494 37.7507 300.494 39.2612C300.494 40.7717 301.718 41.9962 303.229 41.9962Z" fill="#64646A"/>
<path d="M308.546 44.0687V59.2425H313.257V51.7387C313.257 49.7587 313.63 47.8412 316.085 47.8412C318.506 47.8412 318.536 50.105 318.536 51.8637V59.2437H323.25V50.9225C323.25 46.835 322.37 43.6937 317.592 43.6937C315.299 43.6937 313.761 44.9525 313.132 46.1437H313.069V44.0687H308.546V44.0687ZM300.869 44.0687H305.587V59.2425H300.869V44.0687Z" fill="#64646A"/>
<defs>
<filter id="filter0_d_34_48" x="0" y="0" width="120" height="120" filterUnits="userSpaceOnUse" color-interpolation-filters="sRGB">
<feFlood flood-opacity="0" result="BackgroundImageFix"/>
<feColorMatrix in="SourceAlpha" type="matrix" values="0 0 0 0 0 0 0 0 0 0 0 0 0 0 0 0 0 0 127 0" result="hardAlpha"/>
<feOffset dy="12"/>
<feGaussianBlur stdDeviation="15"/>
<feComposite in2="hardAlpha" operator="out"/>
<feColorMatrix type="matrix" values="0 0 0 0 0.802604 0 0 0 0 0.820052 0 0 0 0 0.8375 0 0 0 0.28 0"/>
<feBlend mode="normal" in2="BackgroundImageFix" result="effect1_dropShadow_34_48"/>
<feBlend mode="normal" in="SourceGraphic" in2="effect1_dropShadow_34_48" result="shape"/>
</filter>
<filter id="filter1_d_34_48" x="84" y="0" width="120" height="120" filterUnits="userSpaceOnUse" color-interpolation-filters="sRGB">
<feFlood flood-opacity="0" result="BackgroundImageFix"/>
<feColorMatrix in="SourceAlpha" type="matrix" values="0 0 0 0 0 0 0 0 0 0 0 0 0 0 0 0 0 0 127 0" result="hardAlpha"/>
<feOffset dy="12"/>
<feGaussianBlur stdDeviation="15"/>
<feComposite in2="hardAlpha" operator="out"/>
<feColorMatrix type="matrix" values="0 0 0 0 0.802604 0 0 0 0 0.820052 0 0 0 0 0.8375 0 0 0 0.28 0"/>
<feBlend mode="normal" in2="BackgroundImageFix" result="effect1_dropShadow_34_48"/>
<feBlend mode="normal" in="SourceGraphic" in2="effect1_dropShadow_34_48" result="shape"/>
</filter>
<filter id="filter2_d_34_48" x="168" y="0" width="120" height="120" filterUnits="userSpaceOnUse" color-interpolation-filters="sRGB">
<feFlood flood-opacity="0" result="BackgroundImageFix"/>
<feColorMatrix in="SourceAlpha" type="matrix" values="0 0 0 0 0 0 0 0 0 0 0 0 0 0 0 0 0 0 127 0" result="hardAlpha"/>
<feOffset dy="12"/>
<feGaussianBlur stdDeviation="15"/>
<feComposite in2="hardAlpha" operator="out"/>
<feColorMatrix type="matrix" values="0 0 0 0 0.802604 0 0 0 0 0.820052 0 0 0 0 0.8375 0 0 0 0.28 0"/>
<feBlend mode="normal" in2="BackgroundImageFix" result="effect1_dropShadow_34_48"/>
<feBlend mode="normal" in="SourceGraphic" in2="effect1_dropShadow_34_48" result="shape"/>
</filter>
<filter id="filter3_d_34_48" x="252" y="0" width="120" height="120" filterUnits="userSpaceOnUse" color-interpolation-filters="sRGB">
<feFlood flood-opacity="0" result="BackgroundImageFix"/>
<feColorMatrix in="SourceAlpha" type="matrix" values="0 0 0 0 0 0 0 0 0 0 0 0 0 0 0 0 0 0 127 0" result="hardAlpha"/>
<feOffset dy="12"/>
<feGaussianBlur stdDeviation="15"/>
<feComposite in2="hardAlpha" operator="out"/>
<feColorMatrix type="matrix" values="0 0 0 0 0.802604 0 0 0 0 0.820052 0 0 0 0 0.8375 0 0 0 0.28 0"/>
<feBlend mode="normal" in2="BackgroundImageFix" result="effect1_dropShadow_34_48"/>
<feBlend mode="normal" in="SourceGraphic" in2="effect1_dropShadow_34_48" result="shape"/>
</filter>
</defs>
</svg>
